<svg xmlns="http://www.w3.org/2000/svg" viewBox="0 0 60 36">
<rect width="60" height="36" fill="#012169"/>
<g transform="scale(.5)">
<path d="M0 0l60 36M60 0L0 36" stroke="#fff" stroke-width="7.2"/>
<path d="M0 0l60 36M60 0L0 36" stroke="#C8102E" stroke-width="4"/>
<path d="M30 0v36M0 18h60" stroke="#fff" stroke-width="12"/>
<path d="M30 0v36M0 18h60" stroke="#C8102E" stroke-width="7"/>
</g>
<g fill="#fff">
<polygon points="45,6 46.2,9.5 49.8,9.5 46.9,11.6 48,15 45,12.9 42,15 43.1,11.6 40.2,9.5 43.8,9.5"/>
<polygon points="50,22 50.8,24.2 53.1,24.2 51.2,25.6 51.9,27.8 50,26.4 48.1,27.8 48.8,25.6 46.9,24.2 49.2,24.2"/>
<polygon points="38,18 38.8,20.2 41.1,20.2 39.2,21.6 39.9,23.8 38,22.4 36.1,23.8 36.8,21.6 34.9,20.2 37.2,20.2"/>
<polygon points="48,30 48.7,32 50.8,32 49.1,33.2 49.8,35.2 48,34 46.2,35.2 46.9,33.2 45.2,32 47.3,32"/>
<polygon points="32,27 32.7,29 34.8,29 33.1,30.2 33.8,32.2 32,31 30.2,32.2 30.9,30.2 29.2,29 31.3,29"/>
</g>
</svg>