<?xml version="1.0" encoding="UTF-8"?>
<!DOCTYPE svg PUBLIC "-//W3C//DTD SVG 1.1//EN" "http://www.w3.org/Graphics/SVG/1.1/DTD/svg11.dtd">
<!-- Creator: CorelDRAW 2021.5 -->
<svg xmlns="http://www.w3.org/2000/svg" xml:space="preserve" width="134.011mm" height="26.9879mm" version="1.1" style="shape-rendering:geometricPrecision; text-rendering:geometricPrecision; image-rendering:optimizeQuality; fill-rule:evenodd; clip-rule:evenodd"
viewBox="0 0 13390.99 2696.76"
 xmlns:xlink="http://www.w3.org/1999/xlink"
 xmlns:xodm="http://www.corel.com/coreldraw/odm/2003">
 <defs>
  <style type="text/css">
   <![CDATA[
    .fil0 {fill:#0071C1}
    .fil2 {fill:#0071C1;fill-rule:nonzero}
    .fil3 {fill:#0071C1;fill-rule:nonzero}
    .fil1 {fill:#FE0000;fill-rule:nonzero}
   ]]>
  </style>
 </defs>
 <g id="Слой_x0020_1">
  <metadata id="CorelCorpID_0Corel-Layer"/>
  <path class="fil0" d="M690.64 1034.19c2.16,-23.42 -7.38,-79.08 -0.56,-148.59 27.92,-284.2 199.94,-527.23 492.22,-609.95 281.17,-79.59 514.85,-5 677.21,212.13 94.45,126.3 26.3,91.54 123.91,113.72 21.18,4.81 45.2,11.85 66.58,15.46 -28.28,-134.99 -153.06,-298.81 -273.38,-372.7 -68.92,-42.32 -137.64,-72.81 -230.82,-91.37 -146.56,-29.21 -188.98,-4.1 -298.39,0.79 83.82,-44.79 241.33,-55.07 344.47,-38.14 112.09,18.39 206.15,62.64 281.64,116.63 69.76,49.88 142.65,124.82 191.64,206.63 34.4,57.46 104.92,207.35 105.62,290.47 -134.91,-64.2 -308.1,-97.89 -478.1,-98.02l-112.26 131.52c-37.59,43.18 -81.28,79.47 -123.19,118.4 -66.86,62.11 -186.13,151.21 -288.29,194.72 -221.38,94.29 -473.44,126.47 -718.08,126.43 -33.73,0 -92.17,-4.23 -122.15,-0.51 38.85,24.49 56.94,28 88.69,58.3 50.4,48.07 37.58,53.36 63.12,88.46 138.64,6.64 208.08,-30.49 281.05,-37.84 -45.22,67.26 -228.62,92.61 -260.65,105.88 -4.32,18.18 1.61,69.18 -0.71,96.77 -2.73,32.54 -6.49,63.78 -10.86,94.96 -8.65,61.56 -20,123.02 -34.07,182.39 -27.04,114.11 -62.84,223.7 -107.94,324.13 -46.05,102.52 -94.55,191.28 -151.63,276.54 -49.82,74.44 -115.86,160.67 -181.23,221.18 -13.2,12.22 -7.08,2.08 -14.48,19.14l2575.05 -0.06c-5,-9.06 -122.71,-17.03 -132.46,-18.03 -44.78,-4.58 -90.51,-9.32 -135.54,-13.53l-815.12 -74.94c-183.58,-16.13 -365.48,-30.61 -549.33,-44.49 -144.35,-10.89 -425.08,-36.43 -555.83,-38.63 2.77,-52.41 163.11,-311.85 208.59,-367.24 36.36,-44.29 86.14,-109.9 163.43,-125 211.38,-41.3 461.92,-121.71 495.98,-372.64 23.83,-175.67 -69.16,-308.45 -263.26,-317.05 41.53,-21.54 115.68,-18.05 162.69,-3.51 139.6,43.16 197.86,227.13 186.7,365.06 162.27,42.61 158.08,59.05 361.16,86.84 148.11,20.27 272.12,19.22 422.11,19.38l-38.23 155.64c-51.33,-7.88 -94.56,-24.61 -151.68,-25.31 -12.24,4.78 -9.88,4.76 -17.57,16.47 -5.21,7.93 -9,13.76 -13.04,20.63 -21.59,36.85 -61.06,110.74 -51.11,153.61l6.71 2.21c0.91,0.15 2.44,0.62 3.6,0.77l263.17 -5.86c9.17,-19.8 70.17,-90.28 120.62,-205.98 30.23,-69.32 72.37,-167.98 83.89,-250.19 -162.38,-18.33 -380.04,15.72 -511.41,-142.11 -142.95,-171.74 22.08,-390.7 106.66,-427.54 6.67,7.21 27.24,53.91 26.48,62.49 -0.21,2.39 -167.27,189.6 -56.94,343.94 20.5,28.68 64.24,70.94 107.53,83.24 -26.89,-45.37 -54.54,-75.9 -57.82,-147.44 -2.98,-64.95 22.82,-120.24 55.98,-151.63 14.93,35.77 26.46,66.91 42.97,101.08 23.79,49.24 33.82,49.86 102.15,45.19 48.13,-3.29 43.51,-0.45 74.43,-72.98 15.21,-35.68 28.59,-69.94 41.52,-106.92l51.96 -164.05c9.07,-33.15 13.19,-23.91 28.14,-48.26 46.65,-76.06 10.44,-176.47 -55.89,-200.15 -10.82,-137.17 -40.04,-229.37 -95.75,-336.74 -156.34,-301.31 -525.93,-478.77 -872.58,-415.15 -530.47,97.35 -784.74,711.6 -627.33,1021.31zm1448.37 -60.16c-25.76,7.52 -38.31,20.1 -48.44,45.04 32.92,2.94 180.66,23.08 146.28,-35.16 -15.17,-25.7 -86.21,-69.44 -120.97,-86.93 -78.63,-39.59 -232.44,-82.26 -335.22,-77.09 21.31,12.12 70.41,21.13 97.98,30.21 78.24,25.75 170.67,63.68 240.43,106.82l19.94 17.13z"/>
  <path class="fil1" d="M4620.56 1685.49l0 0c-1.36,111.69 -24.86,212.81 -70.49,303.38 -45.63,90.57 -109.3,162.08 -191.02,214.51 -81.72,52.44 -175.01,78.66 -279.88,78.66 -246.52,4.08 -429.03,-47.67 -547.52,-155.27l-24.51 130.75 -357.52 0 0 -1505.67 398.38 0 0 520.96c119.85,-110.32 296.91,-165.48 531.17,-165.48 106.23,0 200.21,26.9 281.93,80.7 81.72,53.79 145.05,124.28 190,211.44 44.94,87.16 68.1,179.11 69.46,275.8l0 6.13 0 4.09zm-747.73 353.43c73.54,0 136.2,-16.69 187.96,-50.05 51.75,-33.36 90.22,-77.29 115.42,-131.77 25.2,-54.48 38.47,-113.04 39.84,-175.7 -1.37,-54.48 -14.99,-106.91 -40.86,-157.3 -25.88,-50.4 -64.35,-91.6 -115.43,-123.61 -51.07,-32.01 -113.38,-48 -186.93,-48 -96.7,0 -175.01,32.35 -234.94,97.04 -59.92,64.69 -89.88,148.12 -89.88,250.26l0 2.05c0,58.57 13.62,113.72 40.86,165.48 27.24,51.76 65.71,93.3 115.42,124.63 49.71,31.32 105.89,46.98 168.54,46.98z"/>
  <path class="fil1" d="M5447.96 1099.16c187.95,0 356.15,32.69 504.61,98.07 148.45,65.37 222.68,180.45 222.68,345.26l0 719.12 -371.82 0 -32.69 -169.56 0 -10.22c-31.33,62.65 -103.17,111.69 -215.54,147.1 -112.37,35.41 -234.59,53.12 -366.71,53.12 -106.23,0 -213.83,-22.13 -322.79,-66.4 -108.96,-44.27 -163.44,-139.94 -163.44,-287.03 0,-140.28 46.65,-232.9 139.94,-277.85 93.3,-44.94 193.74,-67.41 301.34,-67.41 208.37,0 352.74,-1.71 433.1,-5.12 80.36,-3.4 133.13,-10.55 158.33,-21.44 25.19,-10.9 38.47,-30.65 39.84,-59.25l0 -22.47c-1.37,-47.67 -35.07,-84.79 -101.13,-111.35 -66.05,-26.56 -141.98,-39.84 -227.79,-39.84 -92.61,0 -171.27,15.33 -235.96,45.98 -64.69,30.64 -97.04,77.97 -97.04,141.98l-398.38 0c0,-104.87 39.84,-187.96 119.51,-249.24 79.68,-61.29 175.02,-103.85 286.01,-127.68 111.01,-23.83 220.3,-35.75 327.9,-35.75zm324.83 606.76c-65.37,29.96 -165.48,44.94 -300.31,44.94 -91.25,0 -162.42,3.41 -213.49,10.22 -51.07,6.8 -88.53,18.73 -112.37,35.75 -23.83,17.02 -36.43,41.88 -37.79,74.56 4.09,44.95 27.58,78.99 70.48,102.15 42.91,23.15 115.43,34.72 217.58,34.72 134.84,0 231.2,-29.28 289.08,-87.84 57.89,-58.57 86.82,-129.39 86.82,-212.47l0 -2.04z"/>
  <path class="fil1" d="M7750.38 1148.19l0 1113.41c-5.46,107.6 -44.61,193.74 -117.47,258.44 -72.87,64.69 -160.04,110.32 -261.5,136.88 -101.46,26.56 -201.91,39.84 -301.33,39.84 -148.46,0 -270.02,-5.11 -364.68,-15.33 -94.65,-10.21 -179.77,-41.2 -255.37,-92.95 -75.59,-51.75 -113.38,-134.16 -113.38,-247.19l406.55 0c0,84.44 85.12,126.65 255.37,126.65l71.51 -2.04c65.37,0 128.36,-15.66 188.97,-46.98 60.61,-31.33 90.91,-90.57 90.91,-177.75l0 -100.1c-117.12,104.88 -292.82,157.31 -527.08,157.31 -103.51,0 -196.12,-26.9 -277.84,-80.7 -81.72,-53.8 -146.07,-124.28 -193.05,-211.44 -46.99,-87.16 -71.85,-179.11 -74.57,-275.8l0 -8.17 0 -6.13c1.36,-111.69 25.2,-212.47 71.51,-302.36 46.31,-89.89 110.66,-160.71 193.05,-212.47 82.41,-51.75 176.04,-77.63 280.91,-77.63 242.44,-6.8 420.85,44.27 535.26,153.22l30.65 -128.7 361.61 0zm-725.25 905.03c98.06,0 176.72,-30.65 235.96,-91.93 59.25,-61.29 88.86,-149.14 88.86,-263.54l0 -6.14c0,-55.84 -13.28,-108.96 -39.83,-159.35 -26.56,-50.39 -63.67,-90.91 -111.35,-121.55 -47.66,-30.65 -101.46,-45.98 -161.39,-45.98 -108.96,0 -193.74,33.04 -254.36,99.09 -60.6,66.06 -92.27,150.16 -94.99,252.31 2.72,99.43 33.36,180.46 91.93,243.11 58.57,62.65 140.28,93.98 245.16,93.98z"/>
  <path class="fil2" d="M9333.68 1148.19l0 1113.41c-5.46,107.6 -44.61,193.74 -117.47,258.44 -72.87,64.69 -160.04,110.32 -261.5,136.88 -101.46,26.56 -201.91,39.84 -301.33,39.84 -148.46,0 -270.02,-5.11 -364.68,-15.33 -94.65,-10.21 -179.77,-41.2 -255.37,-92.95 -75.59,-51.75 -113.38,-134.16 -113.38,-247.19l406.55 0c0,84.44 85.12,126.65 255.37,126.65l71.51 -2.04c65.37,0 128.36,-15.66 188.97,-46.98 60.61,-31.33 90.91,-90.57 90.91,-177.75l0 -100.1c-117.12,104.88 -292.82,157.31 -527.08,157.31 -103.51,0 -196.12,-26.9 -277.84,-80.7 -81.72,-53.8 -146.07,-124.28 -193.05,-211.44 -46.99,-87.16 -71.85,-179.11 -74.57,-275.8l0 -8.17 0 -6.13c1.36,-111.69 25.2,-212.47 71.51,-302.36 46.31,-89.89 110.66,-160.71 193.05,-212.47 82.41,-51.75 176.04,-77.63 280.91,-77.63 242.44,-6.8 420.85,44.27 535.26,153.22l30.65 -128.7 361.61 0zm-725.25 905.03c98.06,0 176.72,-30.65 235.96,-91.93 59.25,-61.29 88.86,-149.14 88.86,-263.54l0 -6.14c0,-55.84 -13.28,-108.96 -39.83,-159.35 -26.56,-50.39 -63.67,-90.91 -111.35,-121.55 -47.66,-30.65 -101.46,-45.98 -161.39,-45.98 -108.96,0 -193.74,33.04 -254.36,99.09 -60.6,66.06 -92.27,150.16 -94.99,252.31 2.72,99.43 33.36,180.46 91.93,243.11 58.57,62.65 140.28,93.98 245.16,93.98z"/>
  <path class="fil2" d="M10224.4 1101.2c143.01,0 271.72,25.88 386.12,77.63 114.4,51.76 203.96,123.61 268.65,215.54 64.69,91.93 97.05,195.1 97.05,309.51 0,113.04 -32.36,215.54 -97.05,307.47 -64.69,91.93 -154.24,163.78 -268.65,215.53 -114.4,51.76 -243.11,77.63 -386.12,77.63 -137.56,0 -266.27,-26.21 -386.12,-78.65 -119.85,-52.43 -215.54,-124.62 -287.03,-216.56 -71.51,-91.93 -107.26,-193.73 -107.26,-305.42 0,-113.04 35.75,-215.53 107.26,-307.47 71.5,-91.93 167.18,-164.12 287.03,-216.55 119.85,-52.44 248.56,-78.66 386.12,-78.66zm0 945.9c98.07,0 181.82,-29.29 251.28,-87.85 69.47,-58.57 104.19,-143.68 104.19,-255.37 0,-113.04 -34.72,-198.85 -104.19,-257.42 -69.46,-58.56 -153.21,-87.84 -251.28,-87.84 -62.65,0 -122.92,12.6 -180.8,37.79 -57.89,25.2 -105.21,63.67 -141.98,115.43 -36.77,51.75 -55.16,115.76 -55.16,192.04 0,74.91 18.39,138.25 55.16,190 36.77,51.75 84.1,90.23 141.98,115.42 57.89,25.2 118.15,37.8 180.8,37.8z"/>
  <polygon class="fil2" points="11648.34,1148.19 11860.81,1148.19 11860.81,1434.21 11648.34,1434.21 11648.34,2261.61 11249.97,2261.61 11249.97,1434.21 11027.29,1434.21 11027.29,1148.19 11249.97,1148.19 11249.97,907.13 11648.34,717.13 "/>
  <path class="fil3" d="M12671.87 1607.86c38.13,0 67.41,-0.68 87.84,-2.04l108.28 -2.05c155.26,0 281.25,20.77 377.95,62.31 96.7,41.54 145.05,124.28 145.05,248.21 0,160.72 -70.83,266.61 -212.47,317.68 -141.64,51.08 -306.44,76.61 -494.4,76.61 -183.86,0 -352.06,-28.26 -504.61,-84.78 -152.55,-56.53 -228.81,-165.15 -228.81,-325.85l402.46 2.04c0,68.1 32.7,114.75 98.07,139.94 65.37,25.2 143,37.79 232.89,37.79 110.33,0 190.68,-12.25 241.07,-36.77 50.39,-24.51 75.59,-62.64 75.59,-114.4 0,-50.39 -28.94,-82.74 -86.82,-97.04 -57.89,-14.3 -111.35,-21.45 -160.37,-21.45 -49.03,0 -79,0 -89.89,0 -126.66,0 -239.71,-6.47 -339.13,-19.41 -99.43,-12.94 -186.59,-44.27 -261.5,-93.98 -74.9,-49.71 -112.36,-124.96 -112.36,-225.75 0,-151.18 73.54,-249.92 220.63,-296.23 147.1,-46.31 316.66,-69.46 508.7,-69.46 182.51,0 346.63,27.92 492.36,83.76 145.73,55.85 218.6,164.12 218.6,324.84l-396.33 -2.05c0,-70.82 -37.46,-117.81 -112.37,-140.96 -74.91,-23.15 -142.32,-34.72 -202.26,-34.72 -217.92,0 -326.87,43.58 -326.87,130.74 0,92.62 106.24,140.28 318.71,143.01z"/>
  <g id="_2177189891488">
   <path id="path835" class="fil1" d="M5503.92 873.66l0 -230.51c0,-82.81 -53.71,-123.09 -158.89,-123.09 -62.65,0 -96.23,11.19 -134.27,49.24l58.18 53.71c20.14,-22.38 38.05,-29.1 71.62,-29.1 49.24,0 69.38,17.91 69.38,55.95l0 17.91 -87.28 -0.01c-87.28,0 -127.56,44.77 -127.56,100.7 0,31.34 11.19,58.19 31.33,78.33 22.38,20.13 53.71,31.33 93.99,31.33 42.52,0 67.14,-8.95 91.76,-33.57l0 29.1 91.76 0.01zm-91.75 -129.8c0,22.38 -4.48,35.8 -13.43,44.77 -15.66,13.42 -31.33,17.91 -55.95,17.91 -38.05,0 -55.96,-15.67 -55.96,-40.28 0,-26.86 17.91,-40.28 55.96,-40.28l71.61 -0.01 0 17.91 -2.23 -0.01zm0 0z"/>
   <path id="path837" class="fil1" d="M6049.97 764c0,-60.42 -38.04,-96.23 -109.66,-102.94l-58.19 -4.48c-26.86,-2.24 -38.05,-13.42 -38.05,-29.1 0,-17.91 15.67,-33.56 53.72,-33.56 33.56,0 64.89,4.48 87.27,24.61l58.19 -53.71c-35.8,-31.33 -82.81,-40.28 -140.99,-40.28 -76.09,0 -143.22,38.05 -143.22,111.9 0,64.9 42.52,91.75 107.42,98.48l60.42 4.47c29.1,2.25 40.28,15.67 40.28,31.34 0,26.85 -33.56,35.8 -64.9,35.8 -29.1,0 -69.37,-4.48 -98.47,-33.57l-60.42 55.95c46.99,44.77 100.7,51.47 158.88,51.47 78.33,-2.24 147.7,-40.28 147.7,-116.36l0.02 0zm0 0z"/>
   <path id="path839" class="fil1" d="M6220.05 873.66l0 -340.16 -91.76 0 0 340.16 91.76 0zm0 -409.54l0 -71.61 -93.99 0 0 71.62 93.99 -0.01zm0 0z"/>
   <path id="path841" class="fil1" d="M6616.17 860.24l0 -337.93 -89.52 0 0 33.56c-24.62,-26.85 -51.47,-35.8 -91.76,-35.8 -35.8,0 -69.38,11.19 -89.51,31.33 -35.8,33.57 -38.04,78.33 -38.04,138.76 0,60.42 2.24,105.18 38.04,138.75 20.13,20.14 51.47,31.34 89.51,31.34 35.8,0 64.9,-8.95 89.51,-35.8l0 35.8c0,35.8 -20.13,71.62 -73.84,71.62 -31.34,0 -51.47,-8.95 -73.85,-26.86l-58.19 55.96c38.05,35.8 78.33,44.76 134.28,44.76 98.48,0 163.38,-60.42 163.38,-145.47l0 0zm-94 -172.32c0,46.99 -6.71,91.75 -60.42,91.75 -53.71,0 -60.43,-44.76 -60.43,-91.75 0,-46.99 6.72,-89.52 60.43,-89.52 53.71,0 60.42,44.77 60.42,89.52zm0 0z"/>
   <path id="path843" class="fil1" d="M7030.18 873.66l0 -223.79c0,-38.04 -8.94,-71.62 -38.04,-98.47 -20.13,-20.14 -51.47,-31.34 -87.28,-31.34 -33.56,0 -69.37,11.19 -91.75,35.8l0 -31.33 -91.76 0 0 349.12 91.76 0 0 -212.6c0,-46.99 33.56,-62.66 62.65,-62.66 29.1,0 60.43,15.67 60.43,62.66l0 210.37 93.99 0 0 2.23zm0 0z"/>
   <path id="path845" class="fil1" d="M7410.63 873.66l0 -230.51c0,-82.81 -53.72,-123.09 -158.89,-123.09 -62.66,0 -96.24,11.19 -134.28,49.24l58.19 53.71c20.13,-22.38 38.04,-29.1 71.62,-29.1 49.23,0 69.38,17.91 69.38,55.95l0 17.91 -87.29 -0.01c-87.28,0 -127.55,44.77 -127.55,100.7 0,31.34 11.18,58.19 31.33,78.33 22.38,20.13 53.71,31.33 93.99,31.33 42.52,0 67.13,-8.95 91.75,-33.57l0 29.1 91.77 0.01zm-94 -129.8c0,22.38 -4.48,35.8 -13.43,44.77 -15.66,13.42 -31.33,17.91 -55.95,17.91 -38.04,0 -55.95,-15.67 -55.95,-40.28 0,-26.86 17.91,-40.28 55.95,-40.28l71.62 -0.01 0 17.91 -2.24 -0.01zm0 0z"/>
   <path id="path847" class="fil1" d="M7676.94 873.66l0 -73.85 -33.57 0c-22.38,0 -31.33,-11.18 -31.33,-31.33l0 -167.84 64.9 0 0 -67.13 -64.9 -0.01 0 -102.95 -91.76 0.01 0 102.95 -40.28 -0.01 0 67.13 40.28 0.01 0 172.32c0,49.23 31.33,100.7 107.42,100.7l49.24 0zm0 0z"/>
   <path id="path849" class="fil1" d="M8066.34 873.66l0 -351.35 -91.75 0 0 210.36c0,46.99 -33.57,64.9 -62.66,64.9 -29.1,0 -60.42,-15.67 -60.42,-64.9l0 -210.36 -91.76 0 0 223.78c0,38.05 8.95,71.62 38.05,98.48 20.13,20.13 51.47,31.33 87.27,31.33 33.57,0 69.38,-11.19 91.76,-35.8l0 31.34 89.51 0 0 2.23zm0 0z"/>
   <path id="path851" class="fil1" d="M8442.31 551.4c-24.61,-24.62 -51.46,-33.57 -87.27,-33.57 -40.28,0 -76.09,17.91 -93.99,38.04l0 -33.56 -91.76 0.01 0 349.12 91.75 0 0 -210.37c0,-44.76 31.33,-64.9 60.42,-64.9 22.38,0 35.8,6.71 49.23,20.14l71.62 -64.9zm0 0z"/>
   <path id="path853" class="fil1" d="M8780.23 725.96l0 -38.04c0,-98.48 -58.18,-170.08 -161.13,-170.08 -96.23,0 -161.13,64.9 -161.13,179.04 0,140.99 85.05,179.04 172.32,179.04 67.14,0 102.95,-17.91 140.99,-55.95l-55.95 -51.47c-24.62,22.38 -42.53,33.57 -85.05,33.57 -53.71,0 -80.56,-31.34 -80.56,-78.33l230.5 -0.01 0 2.24zm-91.75 -60.42l-140.99 0c0,-15.67 2.25,-24.61 8.95,-38.05 8.94,-20.13 31.33,-35.8 62.65,-35.8 31.34,0 51.47,15.67 62.66,35.8 4.48,13.43 6.71,22.38 6.71,38.05l0.01 0zm0 0z"/>
   <path id="path855" class="fil1" d="M9341.95 696.86c0,-58.19 -2.24,-111.9 -38.04,-147.7 -20.14,-20.13 -53.71,-31.33 -89.51,-31.33 -38.05,0 -67.14,8.94 -89.51,35.8l0 -158.89 -91.76 -0.01 0 478.92 89.51 0 0 -33.57c24.61,26.86 53.71,35.8 91.76,35.8 35.8,0 69.37,-11.18 89.51,-31.33 35.8,-33.56 38.04,-87.28 38.04,-147.7zm-91.75 0c0,55.96 -6.71,100.7 -62.66,100.7 -55.95,0 -62.65,-44.76 -62.65,-100.7 0,-55.95 6.71,-100.7 62.65,-100.7 53.71,2.24 62.66,44.77 62.66,100.7zm0 0z"/>
   <path id="path857" class="fil1" d="M9702.26 551.4c-24.61,-24.62 -51.47,-33.57 -87.28,-33.57 -40.28,0 -76.08,17.91 -93.99,38.04l0 -33.56 -91.75 0.01 0 349.12 91.75 0 0 -210.37c0,-44.76 31.34,-64.9 60.43,-64.9 22.37,0 35.8,6.71 49.23,20.14l71.61 -64.9zm0 0z"/>
   <path id="path859" class="fil1" d="M10028.99 873.66l0 -230.51c0,-82.81 -53.71,-123.09 -158.89,-123.09 -62.65,0 -96.23,11.19 -134.27,49.24l58.18 53.71c20.14,-22.38 38.05,-29.1 71.63,-29.1 49.23,0 69.37,17.91 69.37,55.95l0 17.91 -87.27 -0.01c-87.28,0 -127.56,44.77 -127.56,100.7 0,31.34 11.19,58.19 31.33,78.33 22.38,20.13 53.71,31.33 93.99,31.33 42.52,0 67.14,-8.95 91.76,-33.57l0 29.1 91.75 0.01zm-91.75 -129.8c0,22.38 -4.48,35.8 -13.43,44.77 -15.66,13.42 -31.33,17.91 -55.95,17.91 -38.04,0 -55.95,-15.67 -55.95,-40.28 0,-26.86 17.91,-40.28 55.95,-40.28l71.62 -0.01 0 17.91 -2.24 -0.01zm0 0z"/>
   <path id="path861" class="fil1" d="M10438.53 873.66l0 -223.79c0,-38.04 -8.94,-71.62 -38.04,-98.47 -20.14,-20.14 -51.47,-31.34 -87.28,-31.34 -33.57,0 -69.38,11.19 -91.75,35.8l0 -31.33 -91.76 0 0 349.12 91.76 0 0 -212.6c0,-46.99 33.56,-62.66 62.65,-62.66 29.1,0 60.42,15.67 60.42,62.66l0 210.37 94 0 0 2.23zm0 0z"/>
   <path id="path863" class="fil1" d="M10834.64 873.66l0 -478.92 -91.75 0 0 158.89c-24.62,-24.61 -53.72,-35.8 -91.76,-35.8 -38.04,0 -69.38,11.19 -89.51,31.33 -35.8,33.57 -38.04,89.51 -38.04,147.7 0,58.19 2.24,114.14 38.04,147.7 20.13,20.14 53.71,31.34 91.75,31.34 40.28,0 67.14,-11.19 91.76,-35.8l0 33.56 89.51 0.01zm-91.75 -176.8c0,55.96 -8.95,100.7 -62.66,100.7 -55.95,0 -62.66,-44.76 -62.66,-100.7 0,-55.95 6.71,-100.7 62.66,-100.7 53.71,2.24 62.66,44.77 62.66,100.7zm0 0z"/>
  </g>
 </g>
</svg>
